<svg xmlns="http://www.w3.org/2000/svg" xmlns:xlink="http://www.w3.org/1999/xlink" viewBox="0 0 255 255"><defs><style>.cls-1{stroke:#f7a814;stroke-miterlimit:10;stroke-width:9px;fill:url(#linear-gradient);}.cls-2{fill:url(#linear-gradient-2);}.cls-3{fill:#fdffc9;}.cls-4{fill:url(#linear-gradient-3);}</style><linearGradient id="linear-gradient" x1="18.71" y1="72.7" x2="234.57" y2="181.44" gradientUnits="userSpaceOnUse"><stop offset="0" stop-color="#f7a814"/><stop offset="1" stop-color="#fcc52b"/></linearGradient><linearGradient id="linear-gradient-2" x1="198.58" y1="191.77" x2="125.72" y2="125.89" gradientUnits="userSpaceOnUse"><stop offset="0" stop-color="#e38a17"/><stop offset="0.98" stop-color="#f1b129"/><stop offset="1" stop-color="#ffd83b"/></linearGradient><linearGradient id="linear-gradient-3" x1="207.22" y1="176.08" x2="51.23" y2="82" gradientUnits="userSpaceOnUse"><stop offset="0" stop-color="#f2a413"/><stop offset="0.26" stop-color="#f2a612"/><stop offset="0.35" stop-color="#f4ad10"/><stop offset="0.42" stop-color="#f7b80c"/><stop offset="0.42" stop-color="#f7b90c"/><stop offset="0.48" stop-color="#fac907"/><stop offset="0.56" stop-color="#fdd403"/><stop offset="0.68" stop-color="#ffdb01"/><stop offset="1" stop-color="#fd0"/></linearGradient></defs><g id="Layer_2" data-name="Layer 2"><g id="Fruit_Shell" data-name="Fruit Shell"><circle id="Skin" class="cls-1" cx="127.5" cy="127.5" r="123"/><g id="Skin_extension" data-name="Skin extension"><circle class="cls-2" cx="127.5" cy="127.5" r="106.5"/><path class="cls-3" d="M127.5,27A100.5,100.5,0,1,1,27,127.5,100.61,100.61,0,0,1,127.5,27m0-12A112.5,112.5,0,1,0,240,127.5,112.5,112.5,0,0,0,127.5,15Z"/></g><ellipse id="Betweens" class="cls-3" cx="128" cy="130" rx="106.5" ry="103.5"/></g><g id="Flesh"><path class="cls-4" d="M154.67,220.67c-15.44,6.3-37.58,7.5-55-1.69-1.55-.82-2-1.76-2.36-3.48-2.42-11.19,19.06-54.2,28.85-77.23a1.38,1.38,0,0,1,2.55,0C141,167.69,157,201.18,157.86,217,158,219,156.46,219.94,154.67,220.67ZM86,212.43c10.62-11.82,23-46.8,35.11-76.29a1.39,1.39,0,0,0-1.81-1.81c-23.2,9.36-68.8,24.58-75,34.21-.95,1.48-1.3,2.45-.78,4.13,5.8,18.8,22.3,33.6,37.68,40.07C83,213.48,84.71,213.86,86,212.43ZM38.46,158.36c15.86-.86,49.35-16.84,78.76-29.13a1.38,1.38,0,0,0,0-2.55c-23-9.79-66-31.27-77.23-28.85-1.72.37-2.66.81-3.48,2.36-9.19,17.4-8,39.54-1.69,55C35.56,157,36.53,158.46,38.46,158.36ZM43.07,86.5c11.82,10.62,46.8,23,76.29,35.11a1.39,1.39,0,0,0,1.81-1.81C111.81,96.6,96.59,51,87,44.79c-1.48-.95-2.45-1.3-4.13-.78-18.8,5.8-33.6,22.3-40.07,37.68C42,83.47,41.64,85.21,43.07,86.5ZM97.15,39C98,54.82,114,88.31,126.27,117.72a1.38,1.38,0,0,0,2.55,0c9.79-23,31.27-66,28.85-77.23-.37-1.72-.8-2.66-2.36-3.48-17.4-9.19-39.54-8-55-1.69C98.54,36.06,97,37,97.15,39ZM169,43.57c-10.62,11.82-23,46.8-35.11,76.29a1.39,1.39,0,0,0,1.81,1.81c23.2-9.36,68.8-24.58,75-34.21.95-1.48,1.3-2.45.78-4.13-5.8-18.8-22.3-33.6-37.68-40.07C172,42.52,170.29,42.14,169,43.57Zm47.54,54.08c-15.86.85-49.35,16.83-78.76,29.12a1.38,1.38,0,0,0,0,2.55c23,9.79,66,31.27,77.23,28.85,1.72-.37,2.66-.8,3.48-2.36,9.19-17.4,8-39.54,1.69-55C219.44,99,218.47,97.54,216.54,97.65Zm-4.61,71.85c-11.82-10.62-46.8-23-76.29-35.11a1.39,1.39,0,0,0-1.81,1.81c9.36,23.2,24.58,68.8,34.21,75,1.48.95,2.45,1.3,4.13.78,18.8-5.8,33.6-22.3,40.07-37.68C213,172.53,213.36,170.79,211.93,169.5Z"/></g></g></svg>