<svg xmlns="http://www.w3.org/2000/svg" xmlns:xlink="http://www.w3.org/1999/xlink" viewBox="0 0 269.78948 254.1997">
  <defs>
    <style>
      .cls-1 {
        opacity: 0.61176;
        fill: url(#linear-gradient);
      }

      .cls-2 {
        fill: url(#linear-gradient-2);
      }

      .cls-3 {
        fill: #ffec1a;
      }

      .cls-4 {
        fill: #fffb1c;
      }

      .cls-5 {
        fill: #f7ffd6;
      }

      .cls-6 {
        opacity: 0.54902;
      }

      .cls-7 {
        fill: #c77e10;
      }

      .cls-7, .cls-8, .cls-9 {
        opacity: 0.58039;
      }

      .cls-9 {
        fill: #e6ad29;
      }

      .cls-10 {
        fill: #b7c97f;
        opacity: 0.27059;
      }
    </style>
    <linearGradient id="linear-gradient" x1="631.01031" y1="172.39868" x2="815.06167" y2="136.99673" gradientUnits="userSpaceOnUse">
      <stop offset="0" stop-color="#eaed13"/>
      <stop offset="0.01353" stop-color="#e9e712"/>
      <stop offset="0.08426" stop-color="#e3cc0e"/>
      <stop offset="0.16555" stop-color="#deb60b"/>
      <stop offset="0.26051" stop-color="#daa509"/>
      <stop offset="0.37795" stop-color="#d89a07"/>
      <stop offset="0.54266" stop-color="#d69306"/>
      <stop offset="1" stop-color="#d69106"/>
    </linearGradient>
    <linearGradient id="linear-gradient-2" x1="663.3948" y1="74.41207" x2="786.79406" y2="155.45039" gradientUnits="userSpaceOnUse">
      <stop offset="0" stop-color="#fffd96" stop-opacity="0.61176"/>
      <stop offset="0.48423" stop-color="#fdfc94" stop-opacity="0.62227"/>
      <stop offset="0.65865" stop-color="#f6f98e" stop-opacity="0.66035"/>
      <stop offset="0.78296" stop-color="#eaf483" stop-opacity="0.72663"/>
      <stop offset="0.88346" stop-color="#d9ed73" stop-opacity="0.8213"/>
      <stop offset="0.96859" stop-color="#c3e45f" stop-opacity="0.94297"/>
      <stop offset="1" stop-color="#b9e055"/>
    </linearGradient>
  </defs>
  <g id="Fruit_outline" data-name="Fruit outline">
    <path class="cls-1" d="M822.45682,34.12789c-11.92352,19.10357,10.04176,40.22395-1.25481,67.81154-5.14064,12.55405-10.88221,18.347-10.12661,23.37994,1.30862,8.71659,11.683-.18051,22.67556,9.96567,16.76749,15.47647,22.22348,20.24673,36.22065,42.27478,6.50481,10.23694-35.52192,11.53907-41.89932,18.8837-16.66981,19.198-42.55955-6.55406-47.48436-.88234-5.39043,6.208,3.131,16.88335-5.56062,37.82582-7.48893,18.04457-6.26513,48.66494-9.86662,46.603-22.96469-13.148-41.33553-30.60613-58.2291-42.19063-14.9529-10.25372,3.45411-50.45564-2.62432-44.975-10.16219,9.16276-28.98315,19.952-37.1012,15.21938-9.83472-5.73342-72.71807-10.421-63.01517-20.12391,12.5747-12.5747,26.40916-39.51321,35.789-53.89583,6.22575-9.54633,21.84523-12.32332,28.15363-13.91987,11.91044-3.01433,8.9385-2.85022.21865-21.232-6.401-13.49349.00593-35.76285,1.96645-48.61606.66036-4.3293-7.358-13.88655-4.10265-16.53043,12.32541-10.01031,11.45634,10.79168,35.08948,14.58783,13.21476,2.12267,31.45817,26.47829,40.5768,26.817,9.80434.36419,3.82947-18.57013,19.89158-17.97349C787.51322,58.1131,834.6475,14.59627,822.45682,34.12789Z" transform="translate(-603.17693 -25.88932)"/>
    <g>
      <path class="cls-2" d="M765.30518,273.47266a2.20586,2.20586,0,0,1-.98487-.23438c-13.21728-6.53174-21.61133-15.02148-29.729-23.23144-6.01709-6.08545-11.70068-11.8335-18.8711-16.15967-9.25683-5.584-10.03027-17.10938-10.5957-25.5249-.40039-5.9668-.77881-9.58985-2.64941-9.58985-3.09766,0-7.145,1.1499-11.43067,2.36768-5.16308,1.46679-11.01513,3.12939-16.53173,3.12939a20.36058,20.36058,0,0,1-8.79981-1.7959c-12.47217-5.833-28.11719-7.33691-39.541-8.43457-10.86182-1.04394-17.418-1.67431-18.66651-5.15039-.88476-2.46338,1.53369-4.88232,2.32861-5.67675,11.28565-11.28614,23.13086-31.77686,30.96875-45.33594,5.40332-9.34815,18.55616-13.48877,25.62256-15.71338.78125-.2461,1.48877-.46875,2.103-.67285,2.981-.98926,6.06348-2.0127,6.43311-2.97412.38281-.99659-1.2334-3.84131-3.46973-7.7793-1.21436-2.1377-2.72607-4.79883-4.44531-8.05664-5.70508-10.81152-3.26026-27.36572-1.2959-40.66748.44092-2.98584.85742-5.80615,1.12305-8.2334a31.31455,31.31455,0,0,0-.855-6.76172c-1.02148-5.44336-2.07714-11.07226.45459-13.41113,2.51124-2.32031,4.88038-3.44824,7.24366-3.44824,3.50879,0,6.49267,2.44238,9.94726,5.2705,4.937,4.04151,11.08155,9.07129,21.69922,10.01563,7.50928.668,14.46143,8.57471,20.59522,15.55127,4.70117,5.34668,9.563,10.876,13.00634,10.87646l.10987-.002c2.9834-.105,3.854-2.49414,5.13623-6.707,1.54931-5.0918,3.67138-12.06543,13.54687-12.41309,11.625-.40967,29.05225-9.27734,43.05518-16.40283,9.79053-4.98193,17.52392-8.91748,21.23242-8.91748a3.05074,3.05074,0,0,1,2.86084,1.39893c.82861,1.40527.42236,3.38086-1.35937,6.605-5.18116,9.375-4.18262,16.96142-3.02637,25.7456,1.1958,9.08252,2.55078,19.37744-2.54444,33.7461-1.69775,4.78906-3.39794,8.6538-4.76367,11.75927-2.20263,5.00782-3.65771,8.31641-3.15722,10.93848.43847,2.29834,1.34765,2.68652,3.85742,2.68652.60351,0,1.249-.02685,1.93164-.05517.80957-.03321,1.66943-.06836,2.57178-.06836a20.044,20.044,0,0,1,13.62695,4.772c11.877,9.84326,18.71924,20.877,26.64209,33.65283,3.57422,5.76416,7.27051,11.72461,11.76074,18.12842,1.3457,1.91895,1.12109,3.418.69629,4.3374-1.7334,3.74854-9.5835,4.66358-22.24805,5.84619-8.5747.80079-18.293,1.7085-21.90625,4.1836a29.82844,29.82844,0,0,1-17.17334,5.248c-8.293.00049-16.04345-3.04638-21.17236-5.0625a30.357,30.357,0,0,0-5.49707-1.84863c.063,1.49219.23535,3.02686.41746,4.647.8008,7.1377,1.79787,16.021-4.437,33.35206-2.97461,8.26709-5.16651,18.87793-6.92822,27.40429C769.33154,268.67578,768.19385,273.47266,765.30518,273.47266Z" transform="translate(-603.17693 -25.88932)"/>
      <path class="cls-3" d="M822.04565,28.88932c2.15888-.00057,2.47193,1.6455.18818,5.77791-10.86921,19.66788,4.25036,31.73413-5.67151,59.71617-4.51508,12.73354-8.91693,18.57546-7.9809,23.48042.64172,3.3624,2.55908,3.90525,5.33118,3.90525,1.32171,0,2.83789-.12339,4.50262-.12339a18.568,18.568,0,0,1,12.67053,4.42681c16.962,14.0575,23.61164,30.77837,38.132,51.48732,6.74793,9.624-33.77362,5.89518-43.0777,12.26854a28.21959,28.21959,0,0,1-16.32531,4.98572c-12.351,0-23.27027-6.92377-26.90192-6.92473-.85858-.00023-1.309.38646-1.27557,1.34307.28357,8.10316,3.72162,16.41166-3.92353,37.66183-6.38989,17.761-8.97937,45.07875-12.40857,45.07875a.717.717,0,0,1-.32031-.07925c-22.91223-11.32346-31.55884-29.11659-48.48956-39.33068-14.98584-9.04071-6.03742-35.33065-14.0202-35.33065-7.17792,0-18.12177,5.497-27.96277,5.497a19.04806,19.04806,0,0,1-8.16376-1.65449C639.2984,188.424,599.21,195.917,610.89459,184.23241c11.14459-11.1446,22.63086-30.81014,31.20685-45.64618,5.6922-9.84729,20.81183-13.69212,26.89954-15.71292,11.49371-3.81536,8.60247-3.4427-.62781-20.93386-6.7757-12.83976-1.41077-35.235-.0083-48.03755.47241-4.31221-3.94306-16.39871-.87366-19.23467,2.35065-2.17186,4.34674-3.0495,6.22546-3.0495,7.40937,0,13.01142,13.635,31.51368,15.28021,12.88983,1.14613,24.84625,26.43336,33.73407,26.43336.05456,0,.10864-.00094.163-.00285,9.574-.33722,2.99835-18.56772,18.68317-19.12013,19.96942-.7034,55.88873-25.31681,64.235-25.319m.00116-3h-.002c-3.87836.001-10.51355,3.28125-21.90729,9.07883-13.87262,7.059-31.13763,15.84421-42.43255,16.242-10.94623.3855-13.34326,8.26313-14.92945,13.47592-1.41015,4.63442-2.04162,5.58387-3.75372,5.6442l-.05743.001c-2.7649,0-7.81879-5.7482-11.8797-10.367-6.31922-7.18738-13.48163-15.33375-21.58869-16.05459-10.15747-.90316-16.10382-5.77087-20.88183-9.68216-3.67713-3.01017-6.85291-5.60984-10.89753-5.60984-2.75805,0-5.46032,1.258-8.26135,3.846-3.14117,2.90229-2.058,8.67666-.91119,14.79a32.18038,32.18038,0,0,1,.83856,6.32137c-.26282,2.39925-.67731,5.20583-1.11609,8.17721-1.9964,13.51812-4.48089,30.342,1.45337,41.58717,1.73016,3.27871,3.248,5.95087,4.46751,8.098,1.50441,2.6485,3.05593,5.3801,3.29488,6.46522a32.30738,32.30738,0,0,1-5.42657,2.12332c-.60834.202-1.309.42238-2.08246.66588-7.2602,2.28591-20.77417,6.54078-26.46918,16.39286-7.79864,13.49126-19.584,33.87938-30.7309,45.02622-.96106.96112-3.88586,3.88588-2.67968,7.24446,1.56994,4.37149,8.09314,4.99846,19.93506,6.13658,11.31488,1.0875,26.81115,2.57687,39.04895,8.30029a21.8214,21.8214,0,0,0,9.43469,1.937c5.72577,0,11.68457-1.693,16.942-3.18658,4.14661-1.17809,8.06513-2.29137,10.947-2.31017.74517,1.01788,1.03369,5.314,1.22674,8.18988.58722,8.74471,1.39136,20.721,11.31757,26.70929,7.01019,4.22916,12.62994,9.9128,18.57965,15.93016,8.20434,8.29767,16.688,16.87787,30.13043,23.52124a3.69407,3.69407,0,0,0,1.64947.38977c4.25733,0,5.3747-5.40851,8.361-19.86313,1.75189-8.47984,3.93225-19.03325,6.87042-27.2,6.35327-17.65945,5.33478-26.73476,4.51636-34.02687-.09577-.85316-.18885-1.68224-.264-2.48952,1.007.35117,2.22656.83057,3.30322,1.25376,5.23438,2.05754,13.14472,5.16688,21.72254,5.16688a31.29951,31.29951,0,0,0,18.02069-5.51071c3.29248-2.25537,12.80511-3.14371,21.19781-3.92746,13.595-1.26958,21.38806-2.20717,23.4701-6.71013a5.65371,5.65371,0,0,0-.82923-5.82825c-4.46563-6.369-8.15033-12.31074-11.71374-18.05691-7.99219-12.88788-14.89447-24.0183-26.96021-34.018a21.45046,21.45046,0,0,0-14.5849-5.117c-.942,0-1.84027.037-2.63281.06954-.673.02767-1.30866.05384-1.86981.05384-2.10425,0-2.1416-.19555-2.38434-1.46762-.413-2.164.96753-5.30284,3.05725-10.05405,1.37567-3.12775,3.08777-7.02037,4.80432-11.86141,5.21533-14.70846,3.83527-25.19288,2.61774-34.44309-1.16791-8.873-2.09046-15.88133,2.85193-24.82458,1.462-2.64538,2.76428-5.67559,1.33844-8.09263a4.51731,4.51731,0,0,0-4.15113-2.13637Z" transform="translate(-603.17693 -25.88932)"/>
    </g>
    <path class="cls-4" d="M807.7823,59.65376c-8.72114,15.22037,4.11538,25.85882-3.6663,47.84414-3.54115,10.00468-7.11106,14.45548-6.242,18.469,1.5052,6.951,9.48476-.13307,18.93181,7.96677,14.41,12.3551,20.25978,26.24353,32.75065,43.81968,5.8048,8.168-28.08642,2.74031-35.73885,7.3273-17.14329,10.27595-37.47633-8.59785-37.15848-3.13767.3816,6.55507,3.4,13.46415-2.60161,30.15369-5.17115,14.38013-6.78925,37.19589-9.82041,35.54853-19.328-10.50435-26.86383-25.37717-41.17909-34.62928-12.67078-8.18927-5.67139-28.86743-12.33486-29.344-7.72905-.55278-20.52488,5.90071-30.08718.94365-22.80578-11.82242-56.13481-8.16991-46.59028-16.9002,9.10342-8.32682,18.33969-23.50846,25.233-34.96714,4.57537-7.60558,17.1274-9.80519,22.17285-11.07228,9.52595-2.39229,7.11919-2.2642-.8984-16.92824-5.88547-10.76442-1.80772-28.514-.866-38.76017.31721-3.45118-3.58463-13.46691-1.07326-15.57188,9.5086-7.96985,12.32346,9.07285,31.72073,12.12151,10.84622,1.70469,21.3404,23.07089,28.7676,23.34942,7.9857.29948,2.17074-14.80257,15.25345-14.31194C775.32068,72.36087,816.69884,44.09236,807.7823,59.65376Z" transform="translate(-603.17693 -25.88932)"/>
  </g>
  <g id="Whites">
    <path class="cls-5" d="M652.16244,170.44464a41.165,41.165,0,0,0-13.63144,7.98055,764.21084,764.21084,0,0,0,93.21642-35.60034l.06546,4.847,3.72975-1.53513c3.33993,9.01357,1.68021,19.00146,2.25118,28.597.43882,7.37462,2.21617,14.59575,3.98594,21.7683l6.31015,25.574c1.66131,6.733,3.56714,13.88772,8.71932,18.52974a767.91264,767.91264,0,0,1-13.13175-83.4663c-.32893-3.24574-.60565-6.68424.81379-9.62161s5.1918-4.99176,8.04334-3.40692a4.04986,4.04986,0,0,0-1.61493-4.69411c8.59386.9558,16.471,5.03925,24.26662,8.7805a366.19526,366.19526,0,0,0,90.86345,29.74362c-.33678-3.92682-6.77552-1.75794-10.29785-3.52614a11.9553,11.9553,0,0,1-2.91752-2.60708c-4.6764-4.77665-11.80643-5.91363-18.3797-7.129a203.81519,203.81519,0,0,1-69.72824-26.861c-2.64037-1.62822-5.44834-3.58869-6.22928-6.59082-1.2595-4.8418,3.3213-9.11226,7.5904-11.72074s9.30521-5.68317,9.67267-10.67259l-12.107,4.06745a243.9,243.9,0,0,1,30.48135-41.583c8.50363-9.34037,18.27284-19.13676,19.34809-31.72239-3.46524-2.00017-7.4349,1.52607-9.87775,4.69484l-51.05215,66.223c-4.37768,5.67856-10.97058,12.03267-17.6169,9.34258-2.27972-.92272-4.01858-2.79388-5.67829-4.60879-12.88205-14.08664-25.814-28.236-36.52611-44.03575-4.86219-7.17144-11.72131-15.74382-20.11406-13.59159l15.97506,20.27191c2.29677,2.91453,4.70608,6.13921,4.69419,9.84993-.00563,1.7579-.567,3.52881-.20774,5.24961.41737,1.99907,1.98227,3.52535,3.4517,4.94354a210.24563,210.24563,0,0,1,27.6274,32.73346c1.1292,1.65455,2.28221,3.49817,2.11215,5.49409-.22042,2.587-2.545,4.43012-4.74595,5.80746C698.30561,156.5,671.45842,163.70576,652.16244,170.44464Z" transform="translate(-603.17693 -25.88932)"/>
  </g>
  <g id="Texture">
    <g class="cls-6">
      <path class="cls-7" d="M740.04657,172.51517c-4.172,4.10374-8.42928,8.32552-10.924,13.61918C734.27931,182.57548,738.67729,177.92285,740.04657,172.51517Z" transform="translate(-603.17693 -25.88932)"/>
      <path class="cls-7" d="M747.96366,191.92825a33.94246,33.94246,0,0,0,10.57186,15.09935,3.08548,3.08548,0,0,0,2.58714.957C757.17185,199.8726,752.21247,192.25238,747.96366,191.92825Z" transform="translate(-603.17693 -25.88932)"/>
      <path class="cls-7" d="M781.53772,150.63821a29.23183,29.23183,0,0,0-11.5718,9.18989c2.05445,1.38556,4.741-.27834,6.63593-1.87512l5.2976-4.464a3.83419,3.83419,0,0,0,1.566-2.13505C783.60421,150.46157,783.0853,149.95776,781.53772,150.63821Z" transform="translate(-603.17693 -25.88932)"/>
      <path class="cls-7" d="M822.24974,163.0134c5.16716-4.088,11.07822-8.40663,17.63045-7.71374A126.74665,126.74665,0,0,1,823.64,164.52227C824.47608,164.61205,825.31213,164.70182,822.24974,163.0134Z" transform="translate(-603.17693 -25.88932)"/>
      <path class="cls-7" d="M773.1743,98.017c2.7653-4.58687,8.10639-6.92914,13.28456-8.29769s10.62562-2.0837,15.33007-4.64386q-11.38809,2.21271-22.95587,3.30751l4.71315-2.696a5.45376,5.45376,0,0,0,2.7578-2.62064,26.35955,26.35955,0,0,0,.314-2.91042c.55025-2.52339,3.63762-3.61658,4.85759-5.893.72837-1.35906.7562-3.08828,1.79514-4.22765,2.06643-2.26617,6.24817-.4812,8.661-2.37429-2.14126-2.29259-6.0981-1.719-8.55023.23752s-3.86855,4.88788-5.55676,7.5319c-4.91571,7.69883-12.626,13.54625-16.34369,21.88981C771.12217,98.12575,771.87356,100.17461,773.1743,98.017Z" transform="translate(-603.17693 -25.88932)"/>
      <path class="cls-7" d="M712.75628,98.085a14.13529,14.13529,0,0,1,4.2417-16.45425,58.916,58.916,0,0,0-5.61523,14.21035,2.669,2.669,0,0,0-.10091,1.2929C711.71091,98.8259,714.66956,98.46111,712.75628,98.085Z" transform="translate(-603.17693 -25.88932)"/>
      <path class="cls-7" d="M692.115,61.35644q5.10071,10.8263,10.96782,21.26887a11.5516,11.5516,0,0,0-2.83842-8.07615c-1.19005-1.35091-2.72471-2.45693-3.49226-4.08544-.83426-1.77-.61783-3.86044-1.22568-5.72044S692.682,61.21786,692.115,61.35644Z" transform="translate(-603.17693 -25.88932)"/>
      <path class="cls-7" d="M727.40912,137.665c-11.93835-2.75491-24.51143-.78181-36.21358,2.84768s-22.83809,8.87592-34.41851,12.87686a81.57471,81.57471,0,0,1,30.82772-14.53818c3.07085-.71715,6.75251-1.75555,7.59236-4.79514l-7.993-.32364a7.3794,7.3794,0,0,1,10.215,1.15367A45.80614,45.80614,0,0,1,727.40912,137.665Z" transform="translate(-603.17693 -25.88932)"/>
      <path class="cls-7" d="M724.73871,142.44507a7.76728,7.76728,0,0,1-1.67072,7.03844,22.93626,22.93626,0,0,1-5.839,4.7126l-22.2181,14.21717c-1.10058.70425-2.35887,1.797-1.982,3.04806,2.46428-4.39276,7.81934-6.031,12.46794-7.96994a54.18251,54.18251,0,0,0,18.74826-13.05915,4.13864,4.13864,0,0,0,1.20012-1.93635C725.8135,146.54157,723.45663,144.81081,724.73871,142.44507Z" transform="translate(-603.17693 -25.88932)"/>
    </g>
    <g class="cls-8">
      <path class="cls-9" d="M719.91047,174.44334c-5.24153,2.60246-10.60078,5.29058-14.61832,9.54568C711.3,182.21068,716.92706,179.15685,719.91047,174.44334Z" transform="translate(-603.17693 -25.88932)"/>
      <path class="cls-9" d="M721.39638,195.356a33.94245,33.94245,0,0,0,5.35077,17.6387c.51745.80508,1.20521,1.66786,2.16111,1.71431C727.67668,205.77048,725.3336,196.98565,721.39638,195.356Z" transform="translate(-603.17693 -25.88932)"/>
      <path class="cls-9" d="M766.14822,166.55745a29.23181,29.23181,0,0,0-13.85628,5.1346c1.52156,1.95586,4.59238,1.21015,6.89.282l6.42334-2.59478a3.83416,3.83416,0,0,0,2.15246-1.542C768.16715,167.03235,767.83069,166.39212,766.14822,166.55745Z" transform="translate(-603.17693 -25.88932)"/>
      <path class="cls-9" d="M774.56752,113.94517c4.05487-3.49919,9.85957-4.06392,15.20655-3.7539s10.74666,1.32476,16.01408.35492q-11.51143-1.43931-22.84591-3.997l5.31795-1.09627a5.45371,5.45371,0,0,0,3.43614-1.63282,26.36269,26.36269,0,0,0,1.20374-2.66837c1.30785-2.22706,4.5821-2.30569,6.44963-4.08968,1.115-1.06508,1.6793-2.69986,3.0211-3.45955,2.6688-1.511,6.08789,1.48616,8.96989.4375-1.32192-2.8449-5.26089-3.53055-8.19995-2.43381s-5.197,3.44209-7.62392,5.42983c-7.06658,5.78789-16.21322,8.947-22.34176,15.72022C772.58337,113.41019,772.66018,115.59114,774.56752,113.94517Z" transform="translate(-603.17693 -25.88932)"/>
      <path class="cls-9" d="M714.71529,141.1034a7.7673,7.7673,0,0,1-3.77714,6.16961,22.93668,22.93668,0,0,1-7.01517,2.66261l-25.53819,6.601c-1.265.327-2.80081.97412-2.83175,2.28038,3.70841-3.40834,9.30739-3.29959,14.32851-3.69643a54.18249,54.18249,0,0,0,21.88027-6.57968,4.13859,4.13859,0,0,0,1.74289-1.467C714.46255,145.331,712.761,142.953,714.71529,141.1034Z" transform="translate(-603.17693 -25.88932)"/>
    </g>
  </g>
  <g id="Seeds">
    <path class="cls-10" d="M737.61783,141.08187c-7.629,4.94855-14.462,12.67944-14.496,21.77272-.003.78937.12994,1.71946.82658,2.09067a2.18088,2.18088,0,0,0,1.76008-.09849,16.5851,16.5851,0,0,0,8.59544-7.95217,26.02143,26.02143,0,0,0,2.68722-11.55906A9.81967,9.81967,0,0,1,737.61783,141.08187Z" transform="translate(-603.17693 -25.88932)"/>
    <path class="cls-10" d="M746.74254,132.46251c.75484-7.54983,5.18385-14.16036,9.4781-20.41569a23.6457,23.6457,0,0,1,3.1725-3.97556c.70661-.66273,1.88753-1.22165,2.555-.51948a1.88255,1.88255,0,0,1,.34873,1.41248c-.2344,4.89565-3.53255,9.06929-6.96512,12.56785S748.0633,128.39812,746.74254,132.46251Z" transform="translate(-603.17693 -25.88932)"/>
    <path class="cls-10" d="M748.10527,142.22483c1.90414,3.47263,1.647,7.66469,2.09312,11.5999s2.15765,8.32557,5.9337,9.51983a3.91925,3.91925,0,0,0,5.32024-3.29057,9.366,9.366,0,0,0-.45806-4.46861C758.9702,148.96617,753.84137,143.36925,748.10527,142.22483Z" transform="translate(-603.17693 -25.88932)"/>
    <path class="cls-10" d="M757.23206,134.2997l14.84319-6.3218a9.40446,9.40446,0,0,1,3.83965-1.022,4.77576,4.77576,0,0,1,4.02508,2.50714,3.673,3.673,0,0,1,.39,2.4819c-.56809,2.502-3.78438,3.15227-6.34919,3.22092A97.606,97.606,0,0,1,757.23206,134.2997Z" transform="translate(-603.17693 -25.88932)"/>
    <path class="cls-10" d="M734.91944,121.79489c-.98215-2.84543-.8074-5.94647-1.30207-8.9157s-1.9858-6.12945-4.83428-7.10271a.97813.97813,0,0,0-.785-.01924,1.02681,1.02681,0,0,0-.39121.56757,12.637,12.637,0,0,0,1.83364,12.05555C731.97187,121.6063,735.61619,123.81347,734.91944,121.79489Z" transform="translate(-603.17693 -25.88932)"/>
    <path class="cls-10" d="M732.26467,136.08027a52.52637,52.52637,0,0,0-18.22225.81181c-2.65163.59151-5.51164,1.5836-6.84639,3.94992a1.54432,1.54432,0,0,0-.25687.92932c.07763.60231.71686.95287,1.2993,1.12482,2.37213.70034,4.91526.065,7.27924-.66242C721.369,140.43328,727.04508,138.064,732.26467,136.08027Z" transform="translate(-603.17693 -25.88932)"/>
  </g>
</svg>
